<svg id="visual" viewBox="0 0 900 600" width="900" height="600" xmlns="http://www.w3.org/2000/svg" xmlns:xlink="http://www.w3.org/1999/xlink" version="1.1"><g stroke-width="1" stroke-linejoin="bevel"><path d="M380 294L383 251L279 288Z" fill="#0c2435" stroke="#0c2435"></path><path d="M383 251L273 269L279 288Z" fill="#15384f" stroke="#15384f"></path><path d="M383 251L338 177L273 269Z" fill="#081a28" stroke="#081a28"></path><path d="M449 208L401 173L383 251Z" fill="#00101c" stroke="#00101c"></path><path d="M383 251L401 173L338 177Z" fill="#15384f" stroke="#15384f"></path><path d="M263 142L211 222L273 269Z" fill="#0c2435" stroke="#0c2435"></path><path d="M273 269L137 331L279 288Z" fill="#112e42" stroke="#112e42"></path><path d="M380 294L449 208L383 251Z" fill="#00101c" stroke="#00101c"></path><path d="M359 93L263 142L338 177Z" fill="#15384f" stroke="#15384f"></path><path d="M338 177L263 142L273 269Z" fill="#246688" stroke="#246688"></path><path d="M424 114L388 136L401 173Z" fill="#081a28" stroke="#081a28"></path><path d="M401 173L388 136L338 177Z" fill="#297ea6" stroke="#297ea6"></path><path d="M449 208L454 168L401 173Z" fill="#19435d" stroke="#19435d"></path><path d="M233 429L294 427L279 288Z" fill="#277297" stroke="#277297"></path><path d="M279 288L294 427L380 294Z" fill="#277297" stroke="#277297"></path><path d="M380 294L505 210L449 208Z" fill="#15384f" stroke="#15384f"></path><path d="M263 142L219 150L211 222Z" fill="#277297" stroke="#277297"></path><path d="M424 114L359 93L388 136Z" fill="#15384f" stroke="#15384f"></path><path d="M388 136L359 93L338 177Z" fill="#00101c" stroke="#00101c"></path><path d="M263 142L204 84L219 150Z" fill="#112e42" stroke="#112e42"></path><path d="M454 168L424 114L401 173Z" fill="#1d4e6b" stroke="#1d4e6b"></path><path d="M449 208L505 210L454 168Z" fill="#0c2435" stroke="#0c2435"></path><path d="M454 168L435 114L424 114Z" fill="#297ea6" stroke="#297ea6"></path><path d="M508 437L505 210L380 294Z" fill="#112e42" stroke="#112e42"></path><path d="M524 160L435 114L454 168Z" fill="#205a7a" stroke="#205a7a"></path><path d="M396 0L354 0L359 93Z" fill="#205a7a" stroke="#205a7a"></path><path d="M174 383L233 429L279 288Z" fill="#297ea6" stroke="#297ea6"></path><path d="M204 84L179 156L219 150Z" fill="#205a7a" stroke="#205a7a"></path><path d="M219 150L179 156L211 222Z" fill="#297ea6" stroke="#297ea6"></path><path d="M137 331L174 383L279 288Z" fill="#0c2435" stroke="#0c2435"></path><path d="M137 331L273 269L211 222Z" fill="#112e42" stroke="#112e42"></path><path d="M179 156L140 203L211 222Z" fill="#19435d" stroke="#19435d"></path><path d="M140 203L137 331L211 222Z" fill="#0c2435" stroke="#0c2435"></path><path d="M327 532L381 473L294 427Z" fill="#081a28" stroke="#081a28"></path><path d="M294 427L381 473L380 294Z" fill="#205a7a" stroke="#205a7a"></path><path d="M381 473L440 450L380 294Z" fill="#277297" stroke="#277297"></path><path d="M179 156L126 194L140 203Z" fill="#246688" stroke="#246688"></path><path d="M140 203L76 218L137 331Z" fill="#19435d" stroke="#19435d"></path><path d="M105 395L139 376L137 331Z" fill="#1d4e6b" stroke="#1d4e6b"></path><path d="M137 331L139 376L174 383Z" fill="#19435d" stroke="#19435d"></path><path d="M174 383L206 499L233 429Z" fill="#205a7a" stroke="#205a7a"></path><path d="M529 160L524 160L552 201Z" fill="#112e42" stroke="#112e42"></path><path d="M505 210L524 160L454 168Z" fill="#1d4e6b" stroke="#1d4e6b"></path><path d="M381 473L425 472L440 450Z" fill="#00101c" stroke="#00101c"></path><path d="M263 24L204 84L263 142Z" fill="#0c2435" stroke="#0c2435"></path><path d="M179 156L58 147L126 194Z" fill="#297ea6" stroke="#297ea6"></path><path d="M552 201L524 160L505 210Z" fill="#15384f" stroke="#15384f"></path><path d="M524 160L575 3L435 114Z" fill="#081a28" stroke="#081a28"></path><path d="M621 244L552 201L505 210Z" fill="#297ea6" stroke="#297ea6"></path><path d="M552 201L541 158L529 160Z" fill="#081a28" stroke="#081a28"></path><path d="M529 160L541 158L524 160Z" fill="#15384f" stroke="#15384f"></path><path d="M425 472L508 437L440 450Z" fill="#246688" stroke="#246688"></path><path d="M440 450L508 437L380 294Z" fill="#00101c" stroke="#00101c"></path><path d="M301 0L263 24L359 93Z" fill="#081a28" stroke="#081a28"></path><path d="M359 93L263 24L263 142Z" fill="#277297" stroke="#277297"></path><path d="M359 93L424 114L396 0Z" fill="#112e42" stroke="#112e42"></path><path d="M0 378L105 395L137 331Z" fill="#19435d" stroke="#19435d"></path><path d="M139 376L105 395L174 383Z" fill="#112e42" stroke="#112e42"></path><path d="M233 429L206 499L294 427Z" fill="#19435d" stroke="#19435d"></path><path d="M58 147L76 218L126 194Z" fill="#112e42" stroke="#112e42"></path><path d="M126 194L76 218L140 203Z" fill="#246688" stroke="#246688"></path><path d="M146 517L206 499L174 383Z" fill="#1d4e6b" stroke="#1d4e6b"></path><path d="M381 473L404 528L425 472Z" fill="#00101c" stroke="#00101c"></path><path d="M206 499L327 532L294 427Z" fill="#0c2435" stroke="#0c2435"></path><path d="M456 576L545 454L508 437Z" fill="#0c2435" stroke="#0c2435"></path><path d="M545 454L548 424L508 437Z" fill="#277297" stroke="#277297"></path><path d="M508 437L548 424L505 210Z" fill="#277297" stroke="#277297"></path><path d="M327 532L404 528L381 473Z" fill="#081a28" stroke="#081a28"></path><path d="M396 0L424 114L435 114Z" fill="#205a7a" stroke="#205a7a"></path><path d="M354 0L301 0L359 93Z" fill="#15384f" stroke="#15384f"></path><path d="M575 3L396 0L435 114Z" fill="#00101c" stroke="#00101c"></path><path d="M456 576L508 437L425 472Z" fill="#081a28" stroke="#081a28"></path><path d="M330 600L348 559L300 600Z" fill="#246688" stroke="#246688"></path><path d="M327 532L348 559L404 528Z" fill="#00101c" stroke="#00101c"></path><path d="M404 528L456 576L425 472Z" fill="#0c2435" stroke="#0c2435"></path><path d="M669 378L621 244L548 424Z" fill="#297ea6" stroke="#297ea6"></path><path d="M548 424L621 244L505 210Z" fill="#297ea6" stroke="#297ea6"></path><path d="M552 201L609 137L541 158Z" fill="#15384f" stroke="#15384f"></path><path d="M541 158L575 3L524 160Z" fill="#1d4e6b" stroke="#1d4e6b"></path><path d="M204 84L58 147L179 156Z" fill="#1d4e6b" stroke="#1d4e6b"></path><path d="M0 378L65 423L105 395Z" fill="#297ea6" stroke="#297ea6"></path><path d="M125 0L58 147L204 84Z" fill="#205a7a" stroke="#205a7a"></path><path d="M171 0L204 84L263 24Z" fill="#0c2435" stroke="#0c2435"></path><path d="M105 395L146 517L174 383Z" fill="#205a7a" stroke="#205a7a"></path><path d="M0 378L137 331L-23 320Z" fill="#205a7a" stroke="#205a7a"></path><path d="M621 244L609 137L552 201Z" fill="#15384f" stroke="#15384f"></path><path d="M80 453L146 517L105 395Z" fill="#00101c" stroke="#00101c"></path><path d="M300 600L348 559L327 532Z" fill="#0c2435" stroke="#0c2435"></path><path d="M65 423L80 453L105 395Z" fill="#112e42" stroke="#112e42"></path><path d="M301 0L171 0L263 24Z" fill="#277297" stroke="#277297"></path><path d="M300 600L327 532L206 499Z" fill="#081a28" stroke="#081a28"></path><path d="M348 559L456 576L404 528Z" fill="#277297" stroke="#277297"></path><path d="M330 600L456 576L348 559Z" fill="#277297" stroke="#277297"></path><path d="M209 600L300 600L206 499Z" fill="#1d4e6b" stroke="#1d4e6b"></path><path d="M80 453L69 478L146 517Z" fill="#1d4e6b" stroke="#1d4e6b"></path><path d="M146 517L209 600L206 499Z" fill="#15384f" stroke="#15384f"></path><path d="M65 423L69 478L80 453Z" fill="#00101c" stroke="#00101c"></path><path d="M171 0L125 0L204 84Z" fill="#112e42" stroke="#112e42"></path><path d="M0 133L0 166L58 147Z" fill="#112e42" stroke="#112e42"></path><path d="M58 147L0 166L76 218Z" fill="#277297" stroke="#277297"></path><path d="M65 423L0 455L69 478Z" fill="#19435d" stroke="#19435d"></path><path d="M-23 320L137 331L76 218Z" fill="#1d4e6b" stroke="#1d4e6b"></path><path d="M155 600L209 600L146 517Z" fill="#0c2435" stroke="#0c2435"></path><path d="M651 446L548 424L545 454Z" fill="#112e42" stroke="#112e42"></path><path d="M651 446L669 378L548 424Z" fill="#0c2435" stroke="#0c2435"></path><path d="M760 120L645 72L609 137Z" fill="#112e42" stroke="#112e42"></path><path d="M0 166L-23 320L76 218Z" fill="#15384f" stroke="#15384f"></path><path d="M0 99L0 133L58 147Z" fill="#1d4e6b" stroke="#1d4e6b"></path><path d="M0 166L-23 156L-23 320Z" fill="#246688" stroke="#246688"></path><path d="M609 137L575 3L541 158Z" fill="#277297" stroke="#277297"></path><path d="M330 600L479 600L456 576Z" fill="#205a7a" stroke="#205a7a"></path><path d="M456 576L531 600L545 454Z" fill="#277297" stroke="#277297"></path><path d="M669 378L687 351L621 244Z" fill="#277297" stroke="#277297"></path><path d="M609 137L645 72L575 3Z" fill="#081a28" stroke="#081a28"></path><path d="M652 455L651 446L545 454Z" fill="#112e42" stroke="#112e42"></path><path d="M669 378L687 395L687 351Z" fill="#205a7a" stroke="#205a7a"></path><path d="M0 506L130 579L69 478Z" fill="#112e42" stroke="#112e42"></path><path d="M69 478L130 579L146 517Z" fill="#112e42" stroke="#112e42"></path><path d="M731 212L609 137L621 244Z" fill="#081a28" stroke="#081a28"></path><path d="M651 446L687 395L669 378Z" fill="#081a28" stroke="#081a28"></path><path d="M671 477L652 455L545 454Z" fill="#246688" stroke="#246688"></path><path d="M0 99L-23 156L0 133Z" fill="#205a7a" stroke="#205a7a"></path><path d="M0 133L-23 156L0 166Z" fill="#297ea6" stroke="#297ea6"></path><path d="M125 0L0 99L58 147Z" fill="#297ea6" stroke="#297ea6"></path><path d="M130 579L155 600L146 517Z" fill="#19435d" stroke="#19435d"></path><path d="M681 447L687 395L651 446Z" fill="#277297" stroke="#277297"></path><path d="M-23 320L0 455L0 378Z" fill="#277297" stroke="#277297"></path><path d="M0 378L0 455L65 423Z" fill="#0c2435" stroke="#0c2435"></path><path d="M645 72L608 0L575 3Z" fill="#112e42" stroke="#112e42"></path><path d="M575 3L608 0L396 0Z" fill="#0c2435" stroke="#0c2435"></path><path d="M479 600L531 600L456 576Z" fill="#246688" stroke="#246688"></path><path d="M645 72L616 0L608 0Z" fill="#0c2435" stroke="#0c2435"></path><path d="M671 477L681 447L652 455Z" fill="#277297" stroke="#277297"></path><path d="M652 455L681 447L651 446Z" fill="#246688" stroke="#246688"></path><path d="M531 600L553 600L545 454Z" fill="#00101c" stroke="#00101c"></path><path d="M553 600L671 477L545 454Z" fill="#246688" stroke="#246688"></path><path d="M671 477L692 440L681 447Z" fill="#081a28" stroke="#081a28"></path><path d="M681 447L692 440L687 395Z" fill="#15384f" stroke="#15384f"></path><path d="M687 395L724 347L687 351Z" fill="#297ea6" stroke="#297ea6"></path><path d="M789 414L724 347L687 395Z" fill="#205a7a" stroke="#205a7a"></path><path d="M687 351L731 212L621 244Z" fill="#15384f" stroke="#15384f"></path><path d="M724 347L731 212L687 351Z" fill="#277297" stroke="#277297"></path><path d="M645 72L656 0L616 0Z" fill="#1d4e6b" stroke="#1d4e6b"></path><path d="M0 455L0 502L69 478Z" fill="#297ea6" stroke="#297ea6"></path><path d="M130 579L0 600L155 600Z" fill="#19435d" stroke="#19435d"></path><path d="M-23 320L0 502L0 455Z" fill="#246688" stroke="#246688"></path><path d="M-13 600L0 506L0 502Z" fill="#1d4e6b" stroke="#1d4e6b"></path><path d="M0 502L0 506L69 478Z" fill="#081a28" stroke="#081a28"></path><path d="M684 0L656 0L645 72Z" fill="#081a28" stroke="#081a28"></path><path d="M125 0L5 0L0 99Z" fill="#15384f" stroke="#15384f"></path><path d="M0 99L0 0L-23 156Z" fill="#205a7a" stroke="#205a7a"></path><path d="M5 0L0 0L0 99Z" fill="#15384f" stroke="#15384f"></path><path d="M731 212L756 173L609 137Z" fill="#246688" stroke="#246688"></path><path d="M813 171L756 173L731 212Z" fill="#205a7a" stroke="#205a7a"></path><path d="M760 120L684 0L645 72Z" fill="#0c2435" stroke="#0c2435"></path><path d="M756 173L760 120L609 137Z" fill="#205a7a" stroke="#205a7a"></path><path d="M671 477L749 481L692 440Z" fill="#1d4e6b" stroke="#1d4e6b"></path><path d="M692 440L789 414L687 395Z" fill="#0c2435" stroke="#0c2435"></path><path d="M553 600L657 600L671 477Z" fill="#246688" stroke="#246688"></path><path d="M-13 600L0 600L0 506Z" fill="#081a28" stroke="#081a28"></path><path d="M0 506L0 600L130 579Z" fill="#1d4e6b" stroke="#1d4e6b"></path><path d="M657 600L749 481L671 477Z" fill="#246688" stroke="#246688"></path><path d="M724 347L796 334L731 212Z" fill="#00101c" stroke="#00101c"></path><path d="M756 173L815 146L760 120Z" fill="#0c2435" stroke="#0c2435"></path><path d="M789 414L796 334L724 347Z" fill="#277297" stroke="#277297"></path><path d="M-23 320L-13 600L0 502Z" fill="#112e42" stroke="#112e42"></path><path d="M749 481L789 414L692 440Z" fill="#246688" stroke="#246688"></path><path d="M868 258L731 212L796 334Z" fill="#1d4e6b" stroke="#1d4e6b"></path><path d="M868 258L813 171L731 212Z" fill="#1d4e6b" stroke="#1d4e6b"></path><path d="M760 120L891 55L684 0Z" fill="#246688" stroke="#246688"></path><path d="M813 171L815 146L756 173Z" fill="#1d4e6b" stroke="#1d4e6b"></path><path d="M900 323L868 258L796 334Z" fill="#15384f" stroke="#15384f"></path><path d="M813 171L900 170L815 146Z" fill="#1d4e6b" stroke="#1d4e6b"></path><path d="M900 464L900 459L789 414Z" fill="#205a7a" stroke="#205a7a"></path><path d="M789 414L900 323L796 334Z" fill="#00101c" stroke="#00101c"></path><path d="M776 615L803 563L749 481Z" fill="#0c2435" stroke="#0c2435"></path><path d="M553 600L776 615L657 600Z" fill="#15384f" stroke="#15384f"></path><path d="M657 600L776 615L749 481Z" fill="#0c2435" stroke="#0c2435"></path><path d="M531 600L776 615L553 600Z" fill="#081a28" stroke="#081a28"></path><path d="M479 600L776 615L531 600Z" fill="#19435d" stroke="#19435d"></path><path d="M330 600L776 615L479 600Z" fill="#297ea6" stroke="#297ea6"></path><path d="M300 600L776 615L330 600Z" fill="#15384f" stroke="#15384f"></path><path d="M209 600L776 615L300 600Z" fill="#1d4e6b" stroke="#1d4e6b"></path><path d="M155 600L776 615L209 600Z" fill="#0c2435" stroke="#0c2435"></path><path d="M0 600L776 615L155 600Z" fill="#1d4e6b" stroke="#1d4e6b"></path><path d="M-13 600L776 615L0 600Z" fill="#081a28" stroke="#081a28"></path><path d="M776 615L792 600L803 563Z" fill="#205a7a" stroke="#205a7a"></path><path d="M900 459L900 323L789 414Z" fill="#297ea6" stroke="#297ea6"></path><path d="M909 218L900 170L813 171Z" fill="#1d4e6b" stroke="#1d4e6b"></path><path d="M789 414L749 481L900 464Z" fill="#297ea6" stroke="#297ea6"></path><path d="M909 218L813 171L868 258Z" fill="#00101c" stroke="#00101c"></path><path d="M815 146L891 55L760 120Z" fill="#00101c" stroke="#00101c"></path><path d="M900 323L909 218L868 258Z" fill="#1d4e6b" stroke="#1d4e6b"></path><path d="M909 218L900 132L900 170Z" fill="#277297" stroke="#277297"></path><path d="M900 170L900 132L815 146Z" fill="#205a7a" stroke="#205a7a"></path><path d="M900 132L891 55L815 146Z" fill="#205a7a" stroke="#205a7a"></path><path d="M900 464L749 481L803 563Z" fill="#205a7a" stroke="#205a7a"></path><path d="M900 323L900 459L909 218Z" fill="#297ea6" stroke="#297ea6"></path><path d="M900 577L900 464L803 563Z" fill="#0c2435" stroke="#0c2435"></path><path d="M900 459L900 464L909 218Z" fill="#112e42" stroke="#112e42"></path><path d="M776 615L865 600L792 600Z" fill="#081a28" stroke="#081a28"></path><path d="M792 600L865 600L803 563Z" fill="#205a7a" stroke="#205a7a"></path><path d="M908 0L891 55L900 132Z" fill="#297ea6" stroke="#297ea6"></path><path d="M908 0L900 0L891 55Z" fill="#081a28" stroke="#081a28"></path><path d="M891 55L900 0L684 0Z" fill="#246688" stroke="#246688"></path><path d="M909 218L908 0L900 132Z" fill="#081a28" stroke="#081a28"></path><path d="M865 600L900 577L803 563Z" fill="#081a28" stroke="#081a28"></path><path d="M900 464L900 577L909 218Z" fill="#1d4e6b" stroke="#1d4e6b"></path><path d="M776 615L900 600L865 600Z" fill="#081a28" stroke="#081a28"></path><path d="M865 600L900 600L900 577Z" fill="#277297" stroke="#277297"></path><path d="M900 577L900 600L909 218Z" fill="#297ea6" stroke="#297ea6"></path></g></svg>